<svg version="1.1" xmlns="http://www.w3.org/2000/svg" style="display: block;" viewBox="0 0 2048 2038" width="1440" height="1433" preserveAspectRatio="none"><path transform="translate(0,0)" fill="rgb(255,255,255)" d="M 0 0 L 2048 0 L 2048 2038 L 0 2038 L 0 0 z"/><path transform="translate(0,0)" fill="rgb(0,0,0)" d="M 941.362 134.321 C 959.653 131.678 977.912 145.334 997.26 147.546 C 1012.33 149.269 1019.85 145.071 1034.34 146.011 C 1040.43 146.407 1049.88 153.163 1056.3 152.912 C 1067.69 152.467 1076.82 147.645 1088.57 148.921 C 1098.67 150.016 1107.7 159.124 1116.36 161.873 C 1124.74 164.531 1138.71 165.949 1147.67 168.025 C 1166.1 172.291 1193.55 189.667 1204.71 204.518 C 1215.98 219.503 1217.58 242.795 1214.78 260.782 L 1215.16 261.054 C 1230.99 271.919 1228.57 274.462 1236.47 288.868 L 1237.63 286.728 C 1242.37 285.676 1280.04 303.606 1287.1 306.84 C 1359.63 339.428 1426.33 383.699 1484.53 437.888 C 1502.28 454.658 1516.85 473.342 1534.87 490.117 C 1549.87 505.242 1561.72 523.205 1574.81 539.932 C 1584.26 552.938 1594.09 565.323 1602.75 578.971 C 1687.97 713.337 1715.49 881.634 1700.71 1038.37 C 1699.74 1048.59 1699.18 1057.45 1699.11 1067.39 C 1716.2 1070.42 1729.72 1078.22 1741.56 1090.66 C 1751.57 1081.58 1767.06 1061.7 1780.05 1064.02 C 1816.7 1070.55 1848.92 1081.57 1859.3 1121.67 C 1863.32 1137.19 1862.99 1140.51 1860.23 1154.8 C 1889.31 1169.41 1899.47 1193.34 1890.2 1224.6 C 1885.09 1241.85 1874.93 1250.68 1864.69 1264.65 C 1836.46 1303.14 1805.83 1331.63 1763.12 1353.64 C 1744.64 1392.18 1718.37 1430.89 1677.65 1447.47 C 1629.93 1466.9 1586.95 1458.14 1565.63 1408.76 C 1539.77 1446.99 1504.54 1480.26 1472.84 1513.23 C 1401.98 1586.92 1314.36 1633.76 1219.09 1668.48 C 1185.88 1680.58 1136.29 1696.61 1101.86 1699.67 C 1097.87 1703.73 1093.82 1707.74 1089.71 1711.68 C 1072.57 1724.9 1056.81 1735.8 1037.18 1745.32 C 1017.26 1754.87 995.648 1760.39 973.585 1761.55 C 939.654 1763.41 871.47 1749.08 843.164 1729.63 C 834.564 1723.72 824.808 1717.9 816.481 1711.3 C 811.515 1708.14 796.842 1691.64 792.428 1690.59 C 738.051 1677.62 686.803 1656.85 635.887 1633.98 C 626.44 1629.74 616.931 1622.48 607.595 1617.84 C 578.712 1603.49 552.48 1585.89 526.702 1566.61 C 440.104 1505.2 373.158 1428.5 326.745 1332.91 C 304.554 1345.35 281.67 1354.71 255.801 1355.53 C 231.998 1356.29 200.435 1347.54 183.395 1330.07 C 134.032 1279.46 164.998 1201.62 237.303 1200.76 C 199.851 1164.93 206.319 1113.29 231.548 1072.41 C 222.274 1024.68 224.338 979.903 229.799 931.987 C 233.267 901.563 236.298 867.26 241.855 837.133 C 248.836 799.288 261.103 759.337 271.636 722.294 C 329.187 549.433 459.919 405.253 621.276 322.652 C 642.594 311.739 666.251 299.895 688.744 291.639 L 690.251 294.457 C 700.231 287.931 694.744 261.424 692.203 251.461 C 686.964 230.92 701.218 226.388 710.719 211.763 C 714.943 205.261 717.222 194.694 722.018 188.198 C 731.211 175.057 746.843 175.52 760.356 170.032 C 774.426 164.318 782.423 153.879 797.376 148.769 C 832.251 136.853 868.199 142.29 904.163 140.078 C 916.232 139.335 929.273 136.405 941.362 134.321 z"/><path transform="translate(0,0)" fill="rgb(255,255,255)" d="M 1242.71 357.005 C 1258.84 361.292 1283.21 375.11 1299.02 383.331 C 1412.74 442.808 1507.35 533.203 1571.94 644.102 C 1634.7 752.481 1668.78 890.265 1659.67 1015.3 C 1658.38 1033.08 1658.51 1053.33 1653.77 1070.46 C 1650.57 1082.08 1639.89 1089.56 1631.18 1097.11 C 1630.53 1106.28 1630.5 1108.2 1625.17 1116.05 L 1623.71 1115.49 C 1625.64 1111.12 1629.69 1103.32 1627.5 1098.72 C 1621.53 1086.22 1614.64 1066.12 1600.61 1060.67 C 1588.22 1055.85 1554.23 1058.43 1541.78 1062.06 C 1535.31 1056.2 1531.49 1054.83 1523.43 1052.11 C 1525.51 1038.04 1528.09 1023.77 1529.21 1009.6 C 1540.19 870.659 1500.75 746.58 1418.27 635.448 C 1378.11 581.347 1329.31 540.215 1272.91 503.845 C 1258.79 494.738 1244.81 484.935 1229.24 478.469 C 1236.94 438.402 1241.45 397.786 1242.71 357.005 z"/><path transform="translate(0,0)" fill="rgb(0,0,0)" d="M 1472.33 590.532 C 1480.16 595.21 1486.63 603.653 1492.23 610.694 C 1502.13 607.869 1509.96 607.223 1520.18 606.383 C 1515.32 615.041 1512.49 622.938 1506.5 631.153 C 1511.37 640.246 1515.9 646.796 1519.49 656.595 C 1509.82 653.332 1502.31 652.326 1492.25 651.127 C 1490.65 651.842 1474.59 667.922 1471.18 670.74 C 1470.11 660.78 1469.55 652.225 1467.04 642.48 C 1457.98 637.259 1450.45 635.843 1442.02 629.552 C 1468.11 619.631 1469.82 618.171 1472.33 590.532 z"/><path transform="translate(0,0)" fill="rgb(0,0,0)" d="M 1374.03 466.702 C 1378.43 472.722 1381.72 483.348 1386.57 491.543 C 1393 493.283 1407.24 494.743 1415.15 496.173 C 1405.16 504.691 1401 506.971 1394.09 518.404 C 1397.09 526.861 1397.55 534.948 1398.42 543.821 C 1391.16 538.814 1381.98 535.812 1373.32 530.033 C 1364.7 534.537 1355.98 538.856 1347.18 542.986 C 1350.75 533.526 1351.73 525.454 1353.42 515.578 C 1344.97 508.324 1340.33 503.797 1333.22 495.261 C 1362.74 492.409 1361.43 494.472 1374.03 466.702 z"/><path transform="translate(0,0)" fill="rgb(0,0,0)" d="M 1544.89 752.37 C 1553.22 757.48 1555.57 763.215 1560.84 770.15 C 1567.09 772.242 1585.17 769.331 1592.97 768.764 C 1587.5 776.971 1582.8 785.668 1578.93 794.743 C 1582.87 802.904 1587.92 809.289 1592.17 818.637 C 1583.31 816.148 1572.99 814.603 1563.89 813.461 C 1558.65 817.16 1548.76 827.815 1543.12 833.082 C 1543.21 822.651 1541.73 814.824 1539.74 804.643 C 1530.72 801.254 1522.59 796.516 1514.14 791.897 C 1541.98 779.021 1541.49 783.81 1544.89 752.37 z"/><path transform="translate(0,0)" fill="rgb(255,255,255)" d="M 703.95 263.941 C 703.944 260.322 703.641 243.752 704.236 241.144 C 707.585 226.461 723.285 206.201 732.088 194.194 C 739.338 184.308 760.409 182.969 771.967 178.056 C 782.341 173.647 790.883 161.74 800.086 158.817 C 840.271 146.049 883.374 150.038 924.891 148.449 C 938.176 147.94 951.217 146.318 964.186 145.387 C 986.333 160.872 997.822 159.843 1022.07 152.264 C 1032.93 155.169 1043.29 161.556 1053.51 163.004 C 1064.82 164.608 1076.69 157.097 1088.92 158.798 C 1104.89 161.02 1114.91 171.581 1129.13 177.167 C 1137.07 180.284 1146.19 178.14 1155.19 182.297 C 1186.93 196.96 1199.99 229.858 1212.14 259.663 C 1201.64 255.605 1198.56 254.937 1187.37 254.464 C 1186.81 248.451 1186.21 227.45 1175 233.699 C 1172.44 240.771 1180.13 250.028 1174.38 255.606 C 1170.11 248.557 1176.12 230.783 1165.03 226.512 C 1161.54 227.036 1161.06 227.752 1158.37 229.975 L 1156.5 230.762 C 1154.26 225.4 1152.01 219.71 1145.33 221.115 C 1136.72 229.779 1144.58 244.336 1139.95 249.855 C 1136.85 242.187 1140.16 223.829 1132.7 220.18 C 1126.22 221.779 1125.28 229.356 1124.64 234.854 C 1123.17 232.434 1122.81 230.35 1121.99 227.585 C 1120.32 223.237 1121.43 224.363 1118.03 221.944 C 1101.13 221.257 1114.21 249.949 1104.44 252.323 C 1096.09 246.656 1108.21 228.787 1095.08 226.686 C 1084.47 230.842 1096.12 248.677 1084.62 253.897 C 1077.26 248.949 1081.18 234.663 1073.5 229.308 C 1070.18 230.114 1071.72 229.352 1069.1 232.284 C 1066.13 241.663 1071.83 246.666 1065.84 252.442 C 1062.09 253.419 1062.15 253.257 1058.5 252.639 C 1055.8 246.287 1054.68 236.211 1049.72 233.915 C 1044.46 237.128 1045.23 245.344 1044.88 251.093 L 1029.03 251.142 C 1027.95 243.685 1027.61 238.295 1023.07 232.072 L 1021.12 231.727 C 1016.34 236.404 1016.54 244.252 1015.76 251.136 C 991.837 251.106 903.956 248.078 887.738 257.482 L 887.762 258.636 C 899.454 262.393 962.041 260.416 978.211 261.392 C 987.301 261.941 1007.88 263.902 1016.82 264.002 C 1016.16 277.658 1012.15 313.758 1022.46 322.929 C 1030.4 318.174 1028.46 274.094 1029.42 264.797 C 1035.03 265.109 1039.92 265.286 1045.5 266.294 L 1045.72 268.045 C 1048.03 286.956 1041.51 310.39 1049.12 325.914 L 1050.84 326.926 C 1065.17 318.958 1049.87 281.955 1061.62 267.327 L 1063.97 266.31 C 1071.11 270.345 1068.85 282.173 1068.38 289.389 C 1067.12 308.836 1067.78 327.428 1070.78 346.766 L 1071.88 345.742 C 1097.46 321.568 1073.28 286.959 1083.1 269.592 L 1084.89 268.898 C 1088.8 271.216 1087.64 269.711 1089.59 272.993 C 1089.85 288.87 1083.46 344.657 1093.06 353.732 C 1094.83 355.407 1096.11 355.518 1098.35 355.622 C 1101.55 349.442 1103.94 312.603 1103.78 303.834 C 1103.64 296.363 1098.73 275.84 1103.43 269.149 C 1112.13 276.94 1108.62 310.328 1107.01 321.03 C 1104.7 336.338 1102.68 347.173 1117.14 356.549 C 1122.57 343.902 1122.53 339.711 1124.03 326.056 C 1125.13 335.538 1125.84 347.266 1132.8 354.357 C 1139.54 355.821 1140.85 348.094 1142.29 342.81 L 1143.48 342.279 C 1145.07 346.415 1146.58 351.802 1147.93 356.122 C 1157.15 354.223 1158.74 354.685 1162.83 345.896 L 1163.51 344.434 C 1164.69 348.722 1166.5 356.84 1172.16 354.595 C 1176.17 349.362 1177.37 345.539 1178.11 339.028 L 1179.81 338.143 C 1180.66 344.663 1184.26 353.553 1186.58 359.972 C 1201.16 330.309 1191.33 305.884 1190.95 274.278 L 1190.93 272.579 L 1208.12 272.673 C 1220.07 304.757 1217.62 331.457 1216.3 365.184 L 975.381 360.896 C 967.589 356.167 957.047 348.32 949.222 342.976 C 918.854 322.237 889.815 299.443 860.29 277.504 C 868.172 302.53 877.791 306.307 897.458 321.773 C 916.771 336.961 937.768 347.736 956.899 362.689 C 921.509 360.271 914.161 348.984 885.949 328.081 C 879.652 323.416 865.691 317.335 858.365 314.01 C 866.92 335.357 880.629 339.031 899.324 350.845 C 905.923 355.015 911.045 358.694 917.269 363.41 C 880.949 362.894 888.962 344.942 858.58 336.361 C 865.599 351.995 872.825 355.003 886.718 364.776 C 876.76 364.759 868.451 364.674 858.487 365.645 C 851.601 462.349 877.143 529.188 907.074 618.778 L 915.052 623.47 L 909.875 624.393 C 903.351 630.317 924.182 645.828 929.067 649.965 C 924.078 648.31 919.501 645.211 914.27 645.776 L 912.908 647.487 C 913.333 655.828 921.595 658.837 923.476 663.127 C 912.083 658.592 898.222 650.026 886.163 650.603 C 882.533 650.777 878.407 655.705 874.363 654.299 C 861.464 649.817 856.723 647.607 842.805 646.743 C 837.56 618.076 822.836 579.703 813.763 551.03 C 802.346 514.954 790.121 472.017 784.226 434.727 C 780.865 413.471 781.902 384.76 782.885 363.297 C 755.494 340.556 731.934 335.15 709.01 301.547 C 710.006 302.465 711.008 303.376 712.015 304.28 C 723.481 314.582 767.137 353.521 780.384 352.524 C 782.794 352.343 783.999 352.626 785.589 350.744 C 780.968 343.069 774.693 340.474 767.922 335.186 C 744.879 317.189 712.89 302.744 705.738 272.174 C 715.887 278.367 720.608 284.835 728.931 293.138 C 744.325 308.497 764.333 327.375 784.64 335.433 C 777.491 311.473 762.682 309.831 744.967 294.088 C 735.39 285.576 731.761 281.459 723.509 271.977 C 738.92 271.226 831.334 270.956 837.078 260.548 C 831.55 258.007 810.949 259.498 803.819 259.419 C 770.097 259.047 737.727 263.929 703.95 263.941 z"/><path transform="translate(0,0)" fill="rgb(255,255,255)" d="M 1208.82 555.713 C 1321.11 617.354 1403.62 721.886 1437.49 845.427 C 1444.03 868.812 1451.27 904.642 1451.91 928.821 C 1421.38 932.407 1411.93 942.677 1389.96 963.236 C 1384.2 968.623 1377.03 973.342 1371.28 979.485 C 1364.52 986.702 1358.67 994.916 1351.26 1001.32 C 1338.63 981.3 1323.48 972.79 1300.56 967.388 C 1294.21 965.892 1285.44 965.143 1280.5 961.463 C 1272.99 955.865 1264.33 953.703 1254.91 955.697 C 1245.22 957.732 1236.81 963.716 1231.72 972.209 C 1231.4 972.754 1231.08 973.299 1230.76 973.845 C 1207.44 954.447 1197.29 952.809 1166.74 951.866 L 1163.81 950.526 C 1164.39 945.631 1158.84 900.89 1158.16 892.682 C 1154.65 850.48 1151.66 812.339 1155.88 769.845 C 1161.46 713.654 1174.49 665.16 1190.86 611.319 C 1195.9 594.742 1206.15 571.218 1208.82 555.713 z"/><path transform="translate(0,0)" fill="rgb(255,255,255)" d="M 680.45 367.774 L 682.073 368.23 C 683.245 371.777 683.199 392.372 683.479 398.136 C 684.326 415.586 689.592 465.143 695.393 479.248 C 646.514 505.022 596.462 539.989 557.521 579.12 C 485.498 650.125 434.809 739.889 411.204 838.234 C 400.982 879.551 396.258 904.981 396.132 947.682 C 367.663 960.643 324.027 985.362 297.451 1002.6 L 289.146 1009.69 C 289.22 992.861 287.496 975.847 287.944 958.927 C 293.589 745.833 406.894 541.989 583.355 422.87 C 613.441 402.56 647.988 384.859 680.45 367.774 z"/><path transform="translate(0,0)" fill="rgb(0,0,0)" d="M 457.187 623.873 L 458.623 624.989 C 459.478 631.609 458.923 643.386 458.787 650.447 C 466.839 655.552 474.39 660.591 481.376 667.094 C 471.843 668.966 463.618 672.144 454.504 675.377 C 452.043 685.446 449.619 692.188 445.751 701.754 L 430.089 679.545 C 427.017 677.88 405.66 679.653 400.802 679.922 C 408.81 670.848 412.564 666.274 418.293 655.69 C 414.282 647.438 412.086 638.436 409.588 629.593 C 418.579 633.978 426.712 636.498 436.315 639.001 C 441.879 633.832 450.717 628.252 457.187 623.873 z"/><path transform="translate(0,0)" fill="rgb(0,0,0)" d="M 384.905 799.849 L 385.766 800.673 C 386.919 806.163 385.568 820.348 385.153 826.465 C 394.126 832.271 400.512 836.58 408.553 843.538 C 398.241 845.843 391.075 847.916 381.59 852.498 C 379.315 862.873 377.211 869.31 373.013 878.955 C 367.845 871.095 362.633 863.265 357.376 855.464 C 350.159 854.786 339.656 856.952 328.658 856.048 C 335.275 848.41 340.844 841.732 345.716 832.855 C 342.972 824.186 340.168 815.536 337.303 806.907 C 344.933 808.635 355.622 813.151 363.823 815.766 C 370.908 808.946 376.629 804.931 384.905 799.849 z"/><path transform="translate(0,0)" fill="rgb(0,0,0)" d="M 572.093 489.777 L 573.355 490.974 C 574.189 497.893 573.751 509.735 573.682 517.066 C 582.651 522.787 588.202 526.618 595.83 533.951 C 585.477 536.082 578.712 537.711 569.205 542.257 C 565.956 550.272 564.969 559.064 560.768 568.817 C 555.406 560.542 550.86 553.797 544.957 545.825 C 536.358 545.02 525.184 545.448 516.361 545.541 C 523.794 537.588 527.689 531.772 533.118 522.468 C 529.03 512.817 527.086 506.133 524.175 496.165 C 533.625 499.765 541.512 502.389 551.091 505.362 C 558.816 500.751 565.313 495.63 572.093 489.777 z"/><path transform="translate(0,0)" fill="rgb(255,255,255)" d="M 714.391 557.608 C 715.931 572.582 726.157 596.294 730.032 611.978 C 735.449 634.186 743.385 656.162 748.947 678.267 C 755.127 702.829 759.309 728.287 764.926 753.064 C 778.587 813.323 771.454 872.999 762.918 933.401 C 760.247 952.298 756.364 967.729 755.774 987.151 C 747.286 988.608 743.729 989.658 736.341 993.443 C 744.479 972.215 750.366 957.294 743.632 934.333 C 736.125 908.734 726.848 900.717 705.075 888.274 C 702.709 889.248 703.562 888.456 702.388 890.508 C 679.211 864.587 654.51 880.794 629.291 894.544 C 620.026 899.595 613.28 907.297 605.051 913.031 C 589.288 894.249 589.313 895.146 568.39 882.455 C 573.667 889.649 577.134 893.547 578.778 902.474 C 576.923 932.74 559.579 947.486 543.65 972.058 C 536.062 983.762 531.397 992.245 525.106 1004.59 C 510.819 1033.05 497.932 1062.2 486.491 1091.92 C 480.652 1107.19 467.882 1145.67 460.968 1156.85 C 468.081 1124.48 482.466 1095.34 495.192 1064.95 C 503.757 1044.5 511.879 1023.42 521.675 1003.54 C 527.863 990.975 536.698 977.543 544.222 965.686 C 555.575 947.793 575.09 927.358 576.45 905.511 C 575.916 899.752 574.002 893.699 569.939 889.313 C 535.286 851.907 509.173 886.236 477.161 906.009 C 481.043 873.48 488.682 841.511 499.926 810.742 C 532.995 719.407 593.367 640.46 672.847 584.615 C 685.001 576.045 701.372 563.657 714.391 557.608 z"/><path transform="translate(0,0)" fill="rgb(255,255,255)" d="M 534.928 880.126 C 537.301 879.605 539.563 879.565 541.994 879.801 C 549.721 880.62 556.782 884.546 561.557 890.675 C 577.204 910.719 551.498 945.656 536.41 961.558 C 514.18 984.986 429.942 1170.31 444.033 1188.63 C 447.305 1188.12 449.931 1185.16 451.681 1182.48 C 464.457 1162.94 474.804 1141.28 486.446 1121.19 C 498.197 1100.91 510.28 1080.93 522.092 1060.68 C 534.934 1038.66 547.922 1016.39 561.875 995.073 C 572.662 979.478 580.913 968.271 593.27 953.187 C 614.239 927.592 647.992 875.106 687.012 884.868 C 698.699 887.792 704.546 908.149 699.856 918.893 C 694.72 930.659 684.524 942.306 678.49 953.881 C 647.896 1010.8 615.148 1067.03 595.438 1128.91 C 588.123 1151.88 569.667 1187.54 579.66 1211.5 C 600.885 1224.67 647.536 1150.62 657.974 1136.91 C 657.084 1150.64 656.543 1155.03 659.408 1168.22 C 639.677 1191.68 618.043 1225.36 584.683 1232.47 C 567.756 1236.08 554.862 1209.68 554.878 1195.11 C 554.948 1131.68 578.533 1067.89 598.108 1008.12 C 600.793 999.896 616.466 965.741 611.092 961.259 C 590.388 971.544 493.024 1151.96 474.455 1184.28 C 463.737 1200.89 453.891 1213.32 432.774 1215.04 C 428.553 1211.39 424.008 1207.81 421.222 1202.87 C 401.862 1168.57 449.293 1029.83 464.256 989.041 C 467.641 979.814 480.912 951.33 482.044 945.293 C 482.432 943.228 482.071 942.858 480.97 941.238 C 473.819 941.12 464.345 960.336 460.228 965.972 C 414.514 1028.55 389.594 1102.16 356.896 1170.65 C 334.252 1218.08 287.607 1276.45 229.431 1270.37 C 194.007 1266.67 172.504 1232.88 207.161 1211.09 C 222.394 1210.09 236.096 1214.28 249.48 1210.75 C 262.933 1206.63 279.994 1197.3 289.627 1186.89 C 331.155 1142.01 363.015 1088.54 395.149 1036.84 C 411.757 1010.12 429.239 984.099 445.247 957.534 L 444.681 955.268 C 442.909 954.846 441.346 954.388 439.53 955.695 C 394.87 987.827 344.104 1020.8 313.342 1067.37 C 303.623 1082 303.675 1102.81 297.854 1117.58 C 288.665 1136.78 251.309 1134.24 246.016 1112.01 C 229.127 1041.09 324.155 992.588 375.532 966.412 C 406.548 950.61 439.138 933.452 470.651 917.699 C 493.129 906.463 511.235 886.934 534.928 880.126 z"/><path transform="translate(0,0)" fill="rgb(255,255,255)" d="M 1014.16 392.778 C 1043.42 400.982 1042.56 408.967 1066.15 422.284 C 1066.07 444.496 1065 461.885 1061.26 483.678 C 1059.54 493.718 1051.79 536.587 1054.78 544.575 C 1063.13 542.393 1075.06 484.424 1079.41 473.257 C 1082.33 465.761 1083.81 444.169 1088.6 438.608 C 1092.47 443.039 1086.31 461.257 1084.93 466.672 C 1077.59 495.462 1072.4 524.867 1065.99 553.802 C 1056.72 595.619 1049.07 636.067 1047.59 679.09 C 1047.1 693.169 1047.62 704.842 1047.91 718.855 C 1059.43 700.693 1057.11 696.995 1059.54 676.727 C 1061.99 656.299 1063.52 635.673 1066.1 615.315 C 1067.92 600.972 1073.44 584.769 1075.84 570.378 C 1081 545.167 1086.42 520.954 1094.51 496.486 C 1099.65 480.915 1102.09 463.995 1109.3 448.914 L 1110.62 448.786 C 1113.39 451.471 1114.19 451.102 1113.12 455.552 C 1109.53 470.468 1104.31 483.219 1100.39 498.377 C 1081.79 570.213 1060.27 649.075 1060.5 723.393 C 1060.51 726.821 1060.27 726.198 1062 727.766 C 1071.67 720.716 1081.79 629.704 1086.61 614.854 C 1093.05 595.027 1127.26 470.408 1133.43 465.376 L 1134.72 466.526 C 1136.37 471.865 1136.49 478.154 1134.73 483.554 C 1110.87 556.96 1087.27 631.742 1074.48 707.988 C 1073.59 713.496 1073.13 719.181 1072.77 724.739 C 1071.78 746.775 1066.91 770.385 1069.12 792.453 C 1071.07 811.821 1072.64 832.02 1074.66 851.332 C 1075.9 863.218 1078.74 874.778 1079.82 887.021 C 1081.36 904.424 1081.46 920.47 1081.11 937.892 L 1078.15 941.166 C 1077.31 921.485 1067.3 796.622 1059.99 789.214 L 1058.63 789.874 C 1054.88 798.447 1055.73 831.516 1056.43 841.287 L 1054.35 841.864 C 1052.75 834.528 1051.02 827.225 1049.13 819.959 L 1047.84 819.351 C 1040.05 824.855 1045.63 904.091 1045.86 918.512 C 1046.03 929.305 1044.42 969.472 1040.54 976.7 C 1036.97 976.295 1032.6 974.255 1029.09 972.896 C 1027.04 969.905 1027.99 965.292 1027.92 961.354 C 1025.22 957.659 1023.32 954.294 1019.46 952.007 L 1017.23 952.001 C 1012.16 957.514 1015.97 963.603 1008.23 964.83 C 1004.53 963.28 1004.98 964.353 1003.9 961.956 C 1007.85 959.316 1008.71 959.829 1009.39 956.515 C 1007 953.918 1006.58 953.868 1003.61 952.127 C 1002.94 944.826 1002.88 937.556 998.26 931.713 C 995.079 930.32 996.726 930.497 993.126 931.51 C 987.868 938.047 993.908 942.646 991.521 949.596 C 988.338 951.954 990.082 951.328 986.084 951.492 C 982.725 949.491 983.852 950.841 982.314 947.544 C 982.535 942.59 982.646 941.742 987.279 939.193 C 986.549 935.936 983.248 932.746 980.974 930.068 L 980.836 928.724 C 979.396 913.861 983.334 890.24 975.717 879.082 L 974.215 878.555 C 965.111 886.603 974.141 922.886 969.422 929.139 C 961.298 921.545 972.533 875.079 958.356 866.933 C 948.356 870.513 956.804 910.955 953.628 920.211 C 953.575 920.764 953.523 921.317 953.47 921.87 C 951.161 915.734 950.382 913.882 949.147 907.439 C 946.898 895.706 951.717 859.625 940.954 853.121 C 936.832 857.612 936.468 876.857 936.987 883.379 C 938.141 897.914 938.669 906.707 935.628 921.024 C 934.394 914.954 933.59 910.225 933.21 904.155 C 932.515 893.056 937.176 858.307 926.995 851.909 C 917.75 856.028 920.513 898.35 919.754 909.505 C 919.023 920.248 916.68 932.371 920.91 942.301 C 917.824 953.659 913.702 981.68 918.268 991.639 C 920.6 993.677 920.736 993.538 923.684 994.682 L 918.707 996.503 C 917.759 996.495 918.44 996.438 916.843 997.354 C 915.049 1007.75 921.223 1009.6 920.103 1015.62 C 918.236 1017.37 916.657 1018.46 915.863 1020.85 L 919.191 1022.62 L 917.817 1024 C 905.466 1024.02 889.82 981.541 852.295 991.988 C 858.188 929.882 859.857 868.674 859.169 806.314 C 858.906 782.564 860.54 758.442 858.194 734.826 C 857.055 723.37 857.56 711.347 856.051 700.209 C 889.75 716.977 965.261 757.419 1000.89 760.628 C 993.132 754.079 981.575 749.359 972.412 744.569 C 935.758 725.406 897.049 710.256 861.504 688.984 C 858.508 687.192 854.93 682.011 852.808 679.074 C 874.957 689.593 916.458 704.907 932.055 721.112 C 955.64 723.147 961.061 729.228 981.984 738.258 C 987.498 740.637 1001.7 744.499 1008.11 746.49 C 989.47 725.731 974.476 729.254 952.141 715.972 C 948.083 713.559 942.551 707.985 939.056 704.574 C 959.755 709.657 971.25 717.745 990.059 726.701 C 994.204 728.675 1004.55 731.7 1009.27 733.098 C 1000.81 713.318 982.372 716.174 966.373 705.272 C 962.134 702.383 958.693 698.347 955.256 694.543 C 973.187 702.438 992.467 710.584 1011.43 715.079 L 1012.43 714.206 C 1006.26 697.078 983.622 697.197 969.411 689.47 C 963.748 686.39 958.885 680.321 954.52 675.453 C 967.432 680.16 977.244 685.794 989.609 691.344 C 996.927 694.629 1008.84 697.825 1016.73 700.196 C 1002.22 679.251 982.494 683.794 963.887 669.56 C 961.8 667.964 956.991 661.195 955.206 658.72 C 981.791 668.096 990.289 680.372 1021 684.616 C 1005.62 670.257 987.407 666.765 970.071 655.789 C 965.269 652.749 960.435 648.182 956.209 644.321 C 969.431 647.869 1009.02 671.151 1017.92 666.171 C 1017.38 651.317 977.959 648.7 973.197 637.048 C 973.467 633.878 973.26 633.992 975.257 631.576 C 985.965 633.58 1002.4 646.615 1018.09 647.219 L 1018.54 645.69 C 1012.8 633.656 994.085 631.844 983.308 624.425 C 978.924 621.407 976.395 618.395 972.855 614.528 C 994.145 619.611 998.417 627.876 1022.24 632.848 C 1010.13 611.915 995.119 618.838 979.199 603.852 C 977.549 602.299 974.362 595.153 973.246 592.727 C 988.102 598.942 1007.09 609.534 1023.03 616.759 C 1011.45 591.826 994.993 599.751 976.776 583.019 C 975.055 581.438 971.204 574.667 969.837 572.304 C 977.243 574.927 982.538 577.162 989.368 580.941 C 994.525 583.794 1014.76 595.627 1019.87 592.904 C 1019.99 577.589 990.285 574.235 986.661 566.042 L 987.867 564.172 C 995.665 562.452 1008.32 576.306 1018 576.59 C 1020.66 574.68 1019.78 575.904 1020.75 572.821 C 1016.69 559.682 987.418 558.434 988.812 545.794 C 997.399 545.335 1009.06 560.162 1020.96 559.353 L 1021.93 557.624 C 1022.58 538.693 987.033 540.767 988.204 525.858 C 994.264 524.77 1006.46 534.641 1012.65 537.022 C 1017.03 538.708 1020.99 539.535 1025.52 540.569 C 1012.37 523.522 989.307 523.917 984.782 506.986 L 985.512 505.728 C 988.535 506.805 991.561 509.146 994.311 510.935 C 1005.98 518.526 1009.83 521.473 1023.47 524.072 C 1016.9 505.253 1002.57 506.047 988.203 494.666 C 986.05 492.961 982.21 487.904 980.395 485.543 C 1001.11 496.555 1002.53 500.22 1026.78 509.472 C 1015.08 485.727 1000.79 490.333 983.388 473.785 C 981.62 472.104 977.282 464.435 975.817 461.877 C 986.757 466.84 1019.89 492.84 1028.75 490.081 C 1029.94 473.999 1000 471.841 1001.05 461.411 C 1008.61 460.556 1021.16 470.921 1028.52 473.39 C 1031.27 474.311 1036.2 474.898 1039.15 475.283 C 1025.51 453.313 1015.21 459.625 998.915 444.223 C 997.067 442.476 996.203 439.106 996.517 436.333 C 1000.73 434.139 1006.78 438.133 1010.34 440.698 C 1021.73 448.909 1030.6 455.733 1044.16 459.92 L 1045.13 460.209 C 1035.03 435.098 1021.48 438.946 1002.95 422.854 C 999.641 419.983 995.16 413.067 992.55 409.196 C 1007.02 417.312 1017.24 426.138 1030.81 435.18 C 1035.6 438.372 1046.58 443.013 1052.2 445.475 C 1041.99 425.324 1030.19 424.036 1013.08 411.798 C 1006.03 406.756 1001.1 400.838 995.567 394.287 C 1022.06 408.241 1025.77 422.378 1061.83 432.081 C 1061.67 431.753 1061.51 431.426 1061.34 431.098 L 1060.5 429.473 C 1052.74 414.233 1040.31 412.99 1027.04 403.757 C 1022.81 400.812 1018.01 396.318 1014.16 392.778 z"/><path transform="translate(0,0)" fill="rgb(255,255,255)" d="M 1446.17 936.219 C 1459.75 933.307 1475.59 946.538 1477.58 959.621 C 1481.09 982.683 1449.83 994.45 1436.3 1007.9 C 1428.01 1016.14 1418.65 1022.97 1410.64 1031.5 C 1353.6 1096.18 1309.03 1170.64 1259.43 1241.1 C 1242.37 1265.32 1197.95 1320.64 1163.09 1298.96 C 1144.71 1287.53 1149.59 1237.03 1154.03 1219.49 C 1156.07 1210.02 1163.33 1189.42 1162.22 1179.39 L 1160.81 1178.52 C 1154.94 1181.04 1148.06 1196.96 1144.14 1202.69 C 1130.04 1223.35 1117.2 1245.32 1100.65 1264.2 C 1085.83 1281.09 1064.56 1301.03 1040.91 1302.92 C 1008.76 1306.19 1005.11 1262.11 1009.92 1239.08 C 1021.81 1182.12 1047.17 1125.93 1068.82 1072.08 C 1072.51 1062.91 1084.94 1034.01 1084.86 1026.31 L 1082.76 1025.89 C 1074.23 1028.3 1070.83 1034.61 1064.22 1040.17 C 1049.86 1052.26 1034.75 1064.31 1024.53 1080.29 C 1018.78 1088.89 1008.13 1110.39 1012.52 1120.95 C 1022.64 1145.3 1022.48 1164.42 990.227 1167.96 C 972.608 1169.89 960.118 1156.09 959.773 1137.61 C 958.74 1082.17 1008.38 1049.02 1050.63 1023.39 C 1063.94 1015.27 1078.06 1006.54 1089.94 996.463 C 1102.95 985.226 1104.6 968.507 1117.54 954.358 C 1125.24 947.683 1136.29 944.956 1145.64 948.726 C 1189.07 966.237 1149.54 1014.8 1138.61 1037.19 C 1104.54 1106.94 1063.73 1170.65 1037.07 1243.78 C 1032.63 1255.96 1028.99 1269.01 1034.82 1281.24 C 1044.58 1287.94 1062.27 1277.62 1069.74 1270.7 C 1083.92 1257.56 1094.95 1240.07 1105.86 1224.24 C 1144.05 1169.57 1177.52 1111.75 1205.92 1051.42 C 1219.09 1022.73 1233.62 938.026 1280.94 968.675 C 1292.88 977.381 1289.38 994.132 1284.85 1005.37 C 1256.73 1075.09 1217.84 1139.81 1188.87 1209.13 C 1184.59 1219.38 1157.54 1291.96 1190.01 1283.07 C 1225.84 1273.26 1248.34 1221.95 1264.64 1191.78 C 1299.95 1128.97 1371.52 951.598 1446.17 936.219 z"/><path transform="translate(0,0)" fill="rgb(255,255,255)" d="M 1385.46 1330.3 C 1390 1332.35 1394.83 1337.06 1399.35 1339.27 C 1431.59 1354.96 1461.11 1352.79 1489.89 1332.03 C 1491.44 1333.31 1493.02 1334.55 1494.62 1335.76 C 1508.87 1346.52 1530.05 1349.6 1547.51 1347.16 C 1482.77 1446.78 1387.01 1524.8 1282.24 1578.95 C 1264.77 1587.62 1245.1 1594.08 1227.27 1602.04 C 1203.56 1612.63 1180.7 1619.31 1155.69 1626.17 C 1157.48 1622.32 1159.2 1618.44 1160.84 1614.52 C 1175.02 1580.2 1177.25 1541.09 1169.59 1505.22 C 1167.46 1495.28 1166.55 1487.18 1162.52 1477.52 C 1185.36 1466.64 1211.6 1459.07 1234.19 1445.93 C 1243.78 1440.35 1253.62 1434.22 1263.16 1428.91 C 1299.4 1408.72 1329.38 1383.07 1360.4 1355.88 C 1367.82 1349.4 1377.53 1337.93 1385.46 1330.3 z"/><path transform="translate(0,0)" fill="rgb(0,0,0)" d="M 1202.95 1507.23 C 1208.39 1506.91 1213.93 1506.23 1219.29 1507.99 C 1236.16 1513.54 1243.89 1535.51 1237.4 1551.32 C 1232.76 1562.62 1223.86 1566.7 1213.33 1570.88 C 1208.23 1572.6 1203.02 1573.66 1197.77 1574.87 C 1192.74 1556 1184.67 1535.89 1179.25 1516.4 C 1188.11 1511.85 1193.33 1509.52 1202.95 1507.23 z"/><path transform="translate(0,0)" fill="rgb(255,255,255)" d="M 1206.02 1517.09 C 1213.03 1516.18 1221.74 1521.63 1225.15 1527.73 C 1228.55 1533.71 1229.2 1540.87 1226.95 1547.36 C 1224.47 1554.47 1220.49 1556.03 1214.22 1559.16 C 1210.51 1560.81 1209.49 1561.82 1206.15 1561.14 C 1201.89 1552.75 1197.73 1534.24 1193.11 1523.08 L 1192.39 1521.37 L 1206.02 1517.09 z"/><path transform="translate(0,0)" fill="rgb(0,0,0)" d="M 1248.31 1489.11 C 1254.47 1488.55 1261.83 1487.99 1267.45 1491.42 C 1276.65 1497.04 1270.05 1508.58 1271.71 1515.49 C 1281.39 1521.9 1284.72 1529.3 1292.89 1538.04 C 1289.54 1539.81 1285.25 1541.5 1281.71 1543 C 1270.93 1532.17 1272 1521.82 1254.12 1526.76 C 1254.34 1529.06 1262.21 1546.37 1263.99 1551.11 L 1253.67 1555.74 C 1246.82 1539.33 1235.66 1515.52 1228.05 1499.35 C 1234.63 1495.62 1241.18 1491.6 1248.31 1489.11 z"/><path transform="translate(0,0)" fill="rgb(255,255,255)" d="M 1251.64 1498.06 C 1256.44 1498.28 1259.22 1498.82 1261.87 1503.18 C 1263.16 1511.39 1257.67 1514.51 1251.53 1518.07 L 1250.59 1518.44 C 1246.06 1515.79 1243.88 1507.47 1241.98 1502.25 L 1251.64 1498.06 z"/><path transform="translate(0,0)" fill="rgb(0,0,0)" d="M 1321.97 1447.87 C 1324.2 1449.35 1352.42 1494.87 1355.89 1501.08 C 1353.07 1503.16 1349.71 1505.14 1346.72 1507.03 C 1331.52 1498.88 1316.2 1490.97 1300.76 1483.27 C 1306.85 1490.94 1320.58 1511.16 1323.42 1519.9 C 1321.9 1522.63 1319.83 1523.31 1316.88 1525.17 L 1315.21 1525.6 C 1311.25 1521.46 1286.81 1480.91 1281.87 1472.6 C 1285.8 1470.09 1287.62 1469.19 1291.89 1467.3 C 1307.96 1474.38 1319.89 1480.25 1335.5 1488.35 L 1313.41 1453.38 L 1321.97 1447.87 z"/><path transform="translate(0,0)" fill="rgb(0,0,0)" d="M 1361.86 1417.95 C 1363.82 1423.31 1361.26 1446.47 1360.6 1452.55 C 1371.24 1458.32 1389.67 1463.16 1401.68 1466.59 C 1396.71 1471.17 1395.73 1472.08 1389.72 1475.22 C 1382.98 1471.86 1367.51 1465.24 1360.05 1465.87 L 1358.98 1467.37 C 1361.42 1475.21 1374.8 1484.28 1370.27 1491 C 1367.55 1492.87 1367.14 1493.41 1363.92 1494.33 C 1358.17 1490.21 1334.27 1454.62 1326.73 1446.11 L 1325.81 1445.09 C 1328.86 1442.72 1332.3 1440.44 1335.5 1438.23 C 1338.65 1444.1 1346.06 1453.06 1350.28 1458.4 C 1350.14 1448.4 1351.05 1436.83 1351.22 1426.46 C 1354.97 1423.78 1358.32 1420.89 1361.86 1417.95 z"/><path transform="translate(0,0)" fill="rgb(0,0,0)" d="M 1431.63 1387.93 C 1433.5 1389.97 1432.7 1404.47 1432.65 1408.06 C 1439.7 1412.55 1444.42 1415.45 1450.74 1420.83 L 1430.81 1428.14 C 1429.5 1436.32 1428.15 1440.93 1425.26 1448.56 L 1413.16 1432.5 C 1410.49 1431.15 1394.32 1432.85 1390.1 1433.09 C 1395.59 1426.57 1398.63 1422.18 1402.6 1414.73 L 1394.99 1395.01 C 1402.35 1397.31 1408.45 1399.36 1416.05 1400.68 C 1421.58 1397.03 1426.63 1392.31 1431.63 1387.93 z"/><path transform="translate(0,0)" fill="rgb(0,0,0)" d="M 1276.53 1475.01 C 1277.89 1476.23 1303.7 1525.13 1306.63 1530.53 L 1297.2 1535.02 C 1293.59 1532.66 1270.37 1487.37 1267.21 1480.25 L 1276.53 1475.01 z"/><path transform="translate(0,0)" fill="rgb(255,255,255)" d="M 389.468 1266.03 C 392.721 1269.4 395.867 1276.36 399.397 1280.07 C 414.37 1295.52 433.852 1305.08 455.722 1301.13 C 474.791 1297.68 483.806 1289.74 498.038 1277.82 C 551.389 1353.53 634.896 1420.97 719.585 1459.36 C 728.542 1463.42 737.816 1466.04 746.907 1470.49 L 748.308 1471.19 C 731.073 1525.96 736.35 1547.5 747.52 1600.14 C 748.637 1604.55 750.336 1609.03 751.849 1613.35 C 732.503 1608.71 714.041 1598.93 695.765 1591.04 C 585.281 1543.33 487.981 1467.96 418.092 1369.52 C 399.038 1342.68 384.201 1323.5 369.272 1293.54 C 378.022 1284.37 382.798 1276.85 389.468 1266.03 z"/><path transform="translate(0,0)" fill="rgb(0,0,0)" d="M 605.003 1428.2 C 631.964 1428.92 636.312 1446.22 633.531 1469.17 C 639.518 1464.3 644.493 1461.47 652.424 1460.6 C 660.324 1459.76 668.222 1462.19 674.285 1467.33 C 679.77 1471.85 683.193 1478.4 683.777 1485.48 C 685.612 1507.79 670.215 1523.38 648.396 1524.53 C 624.22 1520.22 617.34 1504.32 624.733 1482.09 C 588.862 1516.82 546.694 1458.48 591.848 1432.3 C 595.239 1430.34 601.116 1429.17 605.003 1428.2 z"/><path transform="translate(0,0)" fill="rgb(255,255,255)" d="M 605.544 1438.94 C 631.287 1437.3 629.855 1471.7 602.686 1481.03 C 577.771 1482.82 581.12 1457.5 594.535 1445.07 C 597.52 1442.3 601.816 1440.6 605.544 1438.94 z"/><path transform="translate(0,0)" fill="rgb(255,255,255)" d="M 651.211 1471.03 C 664.951 1470.26 667.916 1473.25 672.604 1485.63 C 669.436 1498.81 666.225 1506.39 654.291 1513.89 C 627.722 1520.77 627.41 1483.69 651.211 1471.03 z"/><path transform="translate(0,0)" fill="rgb(0,0,0)" d="M 693.538 1480.71 C 739.536 1487.71 747.408 1537.54 707.317 1548.81 C 691.057 1549.72 681.627 1545.41 667.693 1537.6 C 671.946 1530.2 674.735 1521.49 678.415 1513.69 C 683.702 1502.48 689.258 1492.37 693.538 1480.71 z"/><path transform="translate(0,0)" fill="rgb(255,255,255)" d="M 700.607 1493.47 C 727.562 1502.81 728.083 1525.23 704.581 1538.74 C 694.272 1539.7 691.144 1538.11 682.239 1533.63 C 687.583 1517.97 695.618 1507.81 700.607 1493.47 z"/><path transform="translate(0,0)" fill="rgb(0,0,0)" d="M 492.19 1335.25 C 497.179 1337.69 504.348 1345.01 510.187 1349.17 C 517.68 1345.93 524.063 1344.51 531.987 1342.77 C 528.133 1350.94 526.253 1355.89 523.648 1364.45 C 529.167 1370.98 531.847 1375.6 536.131 1382.99 C 528.569 1382.44 520.996 1382.07 513.417 1381.88 C 508.81 1387.85 504.167 1393.8 499.488 1399.71 C 496.829 1393.51 495.083 1384.66 493.511 1377.9 L 471.585 1369.78 C 491.271 1358.28 491.907 1358.27 492.19 1335.25 z"/><path transform="translate(0,0)" fill="rgb(0,0,0)" d="M 574.429 1394.01 C 578.925 1396.26 600.294 1415.33 600.159 1419.62 C 597.727 1422.46 597.489 1423.01 593.966 1424.56 C 591.612 1423.51 582.111 1413.94 577.586 1410.6 L 576.357 1409.69 C 572.221 1414.99 570.468 1416.72 565.643 1421.25 C 571.128 1426.08 579.94 1431.53 580.315 1438.77 C 577.999 1442.69 577.391 1443.45 573.295 1442.38 C 567.2 1437.36 564.432 1434.73 559.036 1428.96 C 553.451 1434.04 547.341 1442.58 540.596 1449.09 C 537.626 1447.01 534.256 1443.62 531.544 1441.08 C 540.658 1433.68 546.661 1424.44 554.463 1415.83 C 561.288 1408.29 568.226 1402.13 574.429 1394.01 z"/><path transform="translate(0,0)" fill="rgb(255,255,255)" d="M 1597.36 1255.15 C 1586.65 1266.66 1577.46 1279.76 1562.27 1285.8 C 1531.94 1297.87 1518.94 1261.04 1512.03 1239.04 C 1511.16 1236.29 1510.09 1235.21 1507.69 1234.09 C 1497.9 1239.15 1485.36 1272.47 1465.82 1283.13 C 1436.68 1302.57 1415.34 1280.11 1399.7 1255.87 C 1352.94 1182.77 1419.84 1042.72 1513.99 1058.98 C 1540.52 1063.57 1544.95 1085.95 1554.24 1088.51 C 1564.99 1082.16 1572.21 1061.89 1591.85 1065.58 C 1603.67 1067.8 1615.32 1087.37 1612.78 1098.25 C 1608.05 1118.55 1593.2 1136 1584.92 1154.94 C 1571.53 1185.75 1557.54 1218.34 1550.85 1251.38 C 1549.5 1258.05 1549.87 1263.55 1553.22 1269.45 C 1563.81 1275.9 1587.23 1244.36 1592.55 1236.98 C 1594.96 1240.71 1601.01 1254.78 1603.34 1259.73 C 1605.59 1262.69 1606.94 1265.17 1610.26 1266.72 L 1611.88 1266.61 C 1613.87 1266.49 1614.88 1266.5 1616.84 1266.58 L 1617.78 1267.79 L 1615.75 1270.26 C 1618.07 1275.84 1626.39 1273.74 1630.66 1277.54 C 1625.97 1279.53 1617.9 1275.09 1613.47 1273.01 C 1596.73 1293.74 1560.54 1328.77 1533.56 1302.91 C 1518.22 1288.2 1510.3 1273.85 1506.25 1253.2 C 1460.75 1339.66 1389.6 1326.65 1364.12 1237.87 C 1356.76 1212.21 1361.16 1191.23 1369.04 1166.4 C 1381.15 1128.25 1401.57 1088.61 1438.38 1069.25 C 1430 1076.71 1418.27 1086.67 1411.05 1095.09 C 1384.59 1125.73 1366.12 1164.61 1363.74 1205.39 C 1362.25 1231.05 1374.24 1267.86 1391.81 1286.88 C 1417.44 1314.62 1444.37 1318.24 1472.97 1292.39 C 1481.54 1284.53 1489.11 1275.65 1495.51 1265.94 C 1497.73 1262.63 1503.38 1253.11 1505.65 1250.9 C 1509.64 1253.49 1511.25 1263.66 1513.56 1268.75 C 1522 1287.29 1538.11 1314.01 1562.37 1308.21 C 1581.67 1303.59 1596.02 1283.71 1611.28 1271.52 C 1608.11 1268.18 1604.71 1264.7 1601.67 1261.27 L 1597.36 1255.15 z"/><path transform="translate(0,0)" fill="rgb(0,0,0)" d="M 1514.44 1084 C 1537.89 1082.01 1548.11 1106.94 1541.52 1123.02 C 1524.91 1163.58 1494.16 1249.7 1456.1 1271.88 C 1419.91 1283.19 1428.43 1224.39 1434.76 1206.5 C 1446.72 1172.72 1482.08 1100.67 1514.44 1084 z"/><path transform="translate(0,0)" fill="rgb(255,255,255)" d="M 752.807 997.17 C 759.248 997.404 764.963 998.781 770.521 1002.11 C 777.217 1006.11 782.658 1012.41 784.47 1020.11 C 785.725 1025.46 785.072 1030.99 782.903 1036.02 C 776.193 1051.56 762.237 1066.04 752.42 1079.84 C 744.217 1091.37 737.261 1103.73 729.485 1115.54 C 723.61 1124.47 716.968 1133.02 711.476 1142.18 C 707.007 1149.63 699.971 1163 702.706 1171.72 C 703.642 1174.7 706.19 1177.66 709.097 1178.85 C 729.566 1187.3 786.369 1110.52 796.652 1093.59 C 801.347 1085.86 804.243 1076.57 807.893 1068.27 C 816.565 1048.57 833.615 1011.16 853.909 1001.28 C 859.605 998.502 865.492 998.017 871.455 1000.25 C 879.006 1003.08 887.79 1010.5 890.808 1018.07 C 892.759 1022.96 893.064 1028.36 891.679 1033.44 C 888.204 1046.42 877.552 1062.02 871.602 1074.39 C 855.458 1107.94 838.071 1140.96 822.042 1174.55 C 820.512 1177.76 820.656 1179.58 821.932 1182.66 L 824.26 1183.2 C 836.292 1179.34 878.622 1137.29 886.557 1125.21 C 895.397 1111.75 899.287 1101.74 911.605 1088.91 C 916.087 1089.76 920.793 1089.95 924.004 1092.83 C 925.673 1097.36 925.024 1096.42 924.229 1101.86 C 914.167 1128.72 861.744 1181.94 836.021 1196.77 C 824.883 1203.19 808.262 1210.47 799.163 1219.37 C 792.766 1225.63 786.13 1240.1 781.295 1248.82 C 766.323 1276.36 746.456 1301.67 714.914 1310.31 C 673.996 1321.52 650.685 1286.62 675.01 1252.34 C 696.159 1222.53 723.774 1210.85 758.427 1204.38 C 758.945 1203.22 759.425 1202.05 759.864 1200.86 C 762.187 1194.6 769.037 1168.53 766.405 1162.97 C 763.961 1162.26 762.507 1162.71 760.461 1164.37 C 745.958 1176.2 733.428 1190.42 714.18 1194.77 C 689.776 1200.28 672.313 1185.2 667.521 1161.54 C 665.453 1151 665.512 1140.15 667.694 1129.64 C 673.322 1101.93 691.474 1071.74 705.595 1047.21 C 715.723 1029.62 731.771 1001.45 752.807 997.17 z"/><path transform="translate(0,0)" fill="rgb(0,0,0)" d="M 744.87 1222.06 C 748.993 1222.11 748.049 1221.52 751.072 1223.43 C 754.373 1235.24 730.963 1284.22 718.148 1290.96 C 709.262 1295.63 700.565 1295.15 691.471 1293.48 C 681.36 1287.75 680.711 1278.5 685.626 1268.72 C 699.634 1240.86 717.033 1231.65 744.87 1222.06 z"/><path transform="translate(0,0)" fill="rgb(255,255,255)" d="M 737.168 1242.08 C 736.77 1243.77 736.534 1245.55 734.825 1246.44 C 715.002 1256.79 705.587 1265.39 697.104 1287.15 C 691.398 1270.08 724.366 1248.5 737.168 1242.08 z"/><path transform="translate(0,0)" fill="rgb(255,255,255)" d="M 1678.14 1071.05 C 1679.38 1071.06 1680.61 1071.07 1681.85 1071.19 C 1689.82 1071.93 1698.15 1076.78 1703.17 1082.92 C 1707.42 1088.12 1710.57 1095.87 1708.85 1102.65 C 1706.33 1112.6 1695.93 1124.61 1689.95 1133.11 C 1678.97 1148.71 1668.69 1164.66 1658.04 1180.47 C 1650.76 1191.29 1642.22 1202.05 1636.35 1213.71 C 1633.49 1219.38 1631.22 1225.58 1630.82 1231.96 C 1630.61 1235.35 1630.99 1239.68 1633.85 1242 C 1635.69 1243.5 1638.32 1243.89 1640.62 1243.84 C 1647.07 1243.71 1653.43 1241.3 1658.61 1237.52 C 1670.16 1229.09 1711.75 1176.95 1719.21 1163.83 C 1733.05 1139.46 1743.92 1102.73 1763.93 1083.12 C 1769.96 1077.22 1777.86 1072.61 1786.56 1073.14 C 1794.4 1073.61 1801.63 1078.96 1806.42 1084.88 C 1810.69 1090.16 1811.65 1096.95 1810.35 1103.49 C 1808.21 1114.16 1801.26 1124.13 1796.37 1133.8 C 1787.63 1151.13 1744.2 1234.32 1743.04 1245.14 L 1745.27 1246.86 C 1755.18 1247.14 1796.59 1204.96 1803.52 1195 C 1811.05 1184.2 1820.75 1168.5 1829.55 1158.73 C 1831.33 1156.76 1833.43 1157.39 1835.41 1157.74 C 1837.83 1159.47 1839.74 1161.82 1840.93 1164.56 C 1842.24 1167.61 1841.67 1168.78 1840.72 1171.77 C 1817.63 1207.49 1791.55 1237.13 1755.96 1260.99 C 1745.42 1268.07 1731.61 1272.64 1722.89 1280.84 C 1716.95 1287.92 1710.71 1298.54 1707.11 1307.08 C 1695.02 1335.74 1646.19 1384.68 1610.96 1365.52 C 1603.58 1361.49 1598.25 1354.52 1596.32 1346.33 C 1593.8 1335.97 1597.16 1325.28 1602.79 1316.6 C 1623.65 1284.44 1649.35 1275.42 1684.05 1267.1 C 1685.84 1260.61 1696.55 1231.07 1691.97 1227.64 C 1683.12 1228.63 1662.88 1252.01 1645.42 1256.73 C 1611.56 1268.69 1593.14 1235.35 1596.64 1205.39 C 1600.56 1171.91 1622.5 1136.08 1640.48 1107.66 C 1651.53 1090.18 1657.65 1077.28 1678.14 1071.05 z"/><path transform="translate(0,0)" fill="rgb(0,0,0)" d="M 1671.06 1284.03 C 1675.07 1284.16 1674.63 1283.49 1677.08 1285.5 C 1679.26 1300.37 1658.36 1343.26 1643.34 1350.53 C 1634.27 1354.92 1630.75 1355.15 1621.47 1352.54 C 1610.23 1345.21 1609.39 1336.7 1615.77 1324.9 C 1628.26 1301.81 1646.82 1291.71 1671.06 1284.03 z"/><path transform="translate(0,0)" fill="rgb(234,234,234)" d="M 1661.24 1309.16 C 1661.01 1312.53 1657.45 1314.03 1654.24 1315.38 C 1638.41 1322.05 1633.44 1332.84 1622.9 1344.49 L 1622.6 1342.29 C 1633.75 1323.03 1642.22 1319.34 1661.24 1309.16 z"/><path transform="translate(0,0)" fill="rgb(255,255,255)" d="M 942.336 1448.93 C 976.464 1444.74 1010.21 1459.23 1030.68 1486.85 C 1051.16 1514.47 1055.2 1550.97 1041.27 1582.41 C 1027.34 1613.84 997.58 1635.36 963.362 1638.74 C 911.318 1643.89 864.818 1606.21 859.059 1554.23 C 853.301 1502.25 890.427 1455.31 942.336 1448.93 z"/><path transform="translate(0,0)" fill="rgb(0,0,0)" d="M 950.014 1489.39 C 951.581 1489.3 953.152 1489.27 954.721 1489.31 C 966.134 1489.49 978.324 1492.39 986.288 1501.15 C 990.558 1505.77 992.776 1511.92 992.436 1518.21 C 991.899 1527.89 987.113 1533.06 980.616 1539.06 L 981.275 1539.57 L 982.359 1540.45 C 1008.48 1561.23 990.78 1585.06 964.097 1593.2 C 953.729 1594.71 935.075 1591.11 928.181 1583.46 C 913.41 1567.08 919.276 1552.67 932.538 1539.83 C 908.98 1521.21 918.95 1492.76 950.014 1489.39 z"/><path transform="translate(0,0)" fill="rgb(255,255,255)" d="M 953.104 1548.89 C 967.307 1548.67 966.453 1563.27 960.287 1571.7 C 957.398 1571.63 954.269 1571.88 952.222 1569.73 C 949.988 1567.38 948.688 1564.3 948.568 1561.07 C 948.412 1555.57 949.417 1552.65 953.104 1548.89 z"/><path transform="translate(0,0)" fill="rgb(255,255,255)" d="M 953.825 1511.62 C 965.695 1512.52 964.436 1525.43 958.039 1531.75 C 957.003 1531.43 956.048 1531.19 955.076 1530.67 C 952.463 1529.26 950.633 1526.74 950.102 1523.82 C 949.246 1518.82 951.133 1515.51 953.825 1511.62 z"/><path transform="translate(0,0)" fill="rgb(255,255,255)" d="M 970.107 1177.45 C 971.232 1177.35 974.482 1176.55 974.831 1178.13 C 979.894 1201.11 984.565 1218.63 1004.09 1233.59 C 1001.2 1260.25 994.705 1286.01 1019.34 1304.29 C 1025.34 1323.94 1022.53 1320.61 1033.77 1340.37 C 971.17 1315.77 902.471 1320.76 843.879 1354.68 C 832.317 1361.37 815.519 1377.21 805.078 1386.22 C 798.451 1391.57 793.928 1397.11 788.498 1403.62 C 779.637 1401.03 747.163 1386.88 739.098 1382.14 L 740.648 1381.63 C 780.87 1368.31 812.065 1321.57 830.031 1285.44 C 885.033 1256.9 908.79 1226.38 945.236 1178.33 C 953.531 1178.16 961.822 1177.87 970.107 1177.45 z"/><path transform="translate(0,0)" fill="rgb(255,255,255)" d="M 681.868 337.206 C 683.19 340.072 682.725 352.324 682.714 356.294 C 670.35 362.294 656.923 368.185 644.859 374.597 C 631.603 381.644 618.222 390.633 605.323 398.431 C 566.004 422.201 534.405 445.01 500.667 476.244 C 379.245 586.995 301.829 737.814 282.621 901.032 C 278.455 937.729 277.195 974.721 279.734 1011.43 C 280.311 1019.76 271.491 1025.79 265.341 1031.08 C 263.269 1027.46 262.748 998.499 262.539 992.999 C 259.65 892.917 278.911 793.433 318.945 701.661 C 365.9 592.928 439.579 497.828 533.136 425.201 C 572.9 394.818 635.952 355.588 681.868 337.206 z"/><path transform="translate(0,0)" fill="rgb(255,255,255)" d="M 1243.4 330.223 C 1248.59 332.207 1253.72 334.355 1258.77 336.665 C 1430.72 412.036 1565.67 552.646 1633.92 727.544 C 1669.21 819.519 1684.28 918.017 1678.1 1016.34 C 1677.54 1025.26 1676.09 1055.56 1673.21 1062 C 1670.19 1063.59 1669.55 1063.8 1666.44 1064.84 C 1664.04 1063.66 1665.34 1056.74 1665.82 1053.75 C 1671.15 1020.66 1670.06 991.028 1670.14 957.682 C 1670.29 896.758 1656.72 832.465 1640.24 774.075 C 1632.28 750.683 1622.35 726.803 1612.62 704.147 C 1544.97 546.545 1403.51 408.051 1243.43 346.353 L 1243.4 330.223 z"/><path transform="translate(0,0)" fill="rgb(255,255,255)" d="M 1222.43 504.048 C 1232.29 507.586 1241.55 514.42 1250.66 520.034 C 1296.82 548.647 1343.87 586.698 1378.65 628.319 C 1435.64 696.511 1476.86 779.803 1491.53 867.65 C 1496.47 897.268 1502.27 931.689 1499.72 962.013 L 1498.36 962.787 C 1495.19 960.649 1485.35 954.449 1485.22 950.813 C 1478.66 763.663 1385.05 615.724 1218.52 519.204 C 1220.1 514.327 1221.23 509.057 1222.43 504.048 z"/><path transform="translate(0,0)" fill="rgb(255,255,255)" d="M 700.41 508.854 L 701.013 508.917 C 703.486 511.645 704.591 518.853 705.611 522.984 C 689.478 533.653 674.774 541.063 657.973 553.207 C 581.922 607.56 522.311 681.811 485.68 767.813 C 460.679 826.121 456.965 861.671 447.137 922.537 C 443.958 924.452 440.209 926.393 436.917 928.201 L 433.949 928.718 C 424.02 912.806 456.403 798.479 463.465 779.682 C 491.248 706.899 535.274 641.416 592.19 588.22 C 616.038 565.725 640.913 545.546 668.419 527.484 C 678.511 520.857 689.941 515.557 700.41 508.854 z"/><path transform="translate(0,0)" fill="rgb(255,255,255)" d="M 361.902 1302.67 C 363.392 1303.62 378.395 1329.71 380.76 1333.51 C 455.977 1453.78 566.597 1547.8 697.417 1602.65 C 715.012 1609.93 737.861 1620.69 755.968 1624.88 C 757.803 1629.36 761.735 1635.41 761.91 1639.6 L 760.717 1640.67 L 756.449 1639.64 C 726.096 1628.7 702.797 1621.42 672.432 1607.48 C 595.922 1571.6 526.03 1523.04 465.709 1463.85 C 458.683 1456.84 452.654 1448.58 445.761 1441.47 C 409.218 1403.79 378.379 1358.97 351.643 1313.74 C 355.927 1309.74 358.199 1307.07 361.902 1302.67 z"/><path transform="translate(0,0)" fill="rgb(255,255,255)" d="M 739.711 543.629 L 741.505 544.414 C 743.65 547.884 750.431 573.918 752.299 580.13 C 755.98 592.204 759.907 604.202 764.076 616.116 C 784.227 675.015 803.607 730.607 806.642 793.401 C 808.064 822.837 801.361 859.098 798.596 889.364 C 796.198 915.618 788.295 942.477 797.759 969.714 C 803.004 984.809 817.165 991.273 830.553 997.208 C 824.921 999.464 821.87 1000.99 816.575 1003.81 C 811.034 1007.37 809.448 1009.02 804.746 1013.56 C 795.527 1005.53 791.471 1003.38 780.405 997.822 C 781.731 952.106 792.889 905.044 791.359 858.488 C 791.018 848.111 793.215 836.016 792.989 825.169 C 792.48 800.833 789.525 776.687 787.898 752.401 C 779.643 682.469 750.714 616.444 734.328 548.651 C 735.835 545.466 736.28 545.963 739.711 543.629 z"/><path transform="translate(0,0)" fill="rgb(255,255,255)" d="M 1571.12 1338 L 1571.95 1339.07 C 1569.76 1344.43 1566.89 1351.57 1563.69 1356.36 C 1467.58 1500.53 1313.96 1611.46 1144.32 1650.78 L 1143.48 1649.65 C 1145.77 1645.69 1147.93 1641.65 1149.95 1637.55 C 1168.05 1633.91 1195.61 1623.81 1213.83 1617.28 C 1329.96 1576.02 1433.07 1504.7 1512.64 1410.59 C 1530.52 1389.86 1546.14 1365.91 1561.87 1343.54 C 1563.44 1341.3 1568.65 1339.1 1571.12 1338 z"/><path transform="translate(0,0)" fill="rgb(255,255,255)" d="M 815.359 1406.95 C 822.503 1413.45 838.241 1432.95 844.717 1440.95 C 829.981 1465 819.371 1478.7 812.403 1507.47 C 806.954 1506.83 801.217 1505.78 795.778 1504.9 L 762.17 1499.8 C 770.38 1468.07 790.015 1427.91 815.359 1406.95 z"/><path transform="translate(0,0)" fill="rgb(255,255,255)" d="M 1353.92 1292.64 C 1355.5 1293.57 1361.63 1303.13 1363.43 1305.66 C 1359.14 1310.61 1351.86 1317.05 1346.94 1321.92 C 1303.75 1364.63 1257.57 1396.43 1203.49 1424.01 C 1185.6 1433.14 1168.1 1437.7 1150.52 1445.37 C 1146.72 1446 1142.9 1434.94 1141.73 1432.03 C 1150.58 1429.61 1168.93 1421.34 1178.08 1417.4 C 1247.99 1387.27 1302.32 1348.33 1353.92 1292.64 z"/><path transform="translate(0,0)" fill="rgb(255,255,255)" d="M 1157.4 1342.72 C 1161.74 1346.02 1164.32 1349.92 1168.37 1353.14 C 1182.9 1364.67 1196.86 1365.34 1213.51 1368.72 C 1182.01 1383.85 1170.85 1391.82 1136.24 1404.45 L 1125.75 1407.76 C 1120.39 1402.41 1115.99 1395.24 1110.1 1389.83 C 1101.45 1381.9 1092.49 1375.14 1083.67 1367.28 C 1109.76 1369.22 1137.28 1359.18 1157.4 1342.72 z"/><path transform="translate(0,0)" fill="rgb(255,255,255)" d="M 598.511 1315.23 C 598.384 1315.21 621.323 1334.71 624.357 1336.89 L 626.672 1342.62 C 635.701 1365.35 654.472 1381.52 678.396 1386.9 C 683.488 1388.05 695.715 1388.16 699.516 1390.42 C 723.249 1404.52 747.166 1415.31 772.57 1425.98 C 768.121 1433.77 767.572 1439.25 758.24 1437.38 C 743.904 1432.16 729.565 1424.04 715.989 1416.81 C 683.059 1399.28 650.067 1378.33 620.683 1355.3 C 606.808 1344.43 592.75 1330.23 580.038 1318.06 C 587.723 1317.38 591.059 1317.07 598.511 1315.23 z"/><path transform="translate(0,0)" fill="rgb(255,255,255)" d="M 1184.37 543.592 L 1189.69 545.469 C 1192.74 549.547 1174.33 599.072 1171.52 608.314 C 1155.79 660.11 1139.05 711.37 1133.78 765.555 C 1132.22 781.574 1132.87 798.097 1131.95 814.173 C 1128.73 845.479 1127.43 874.526 1133.91 905.652 C 1136.07 915.986 1136.81 927.124 1138.77 937.791 C 1138.77 939.341 1138.99 938.588 1137.89 939.977 C 1125.05 928.26 1123.27 777.894 1127.38 753.863 C 1133 720.951 1146.85 677.906 1154.49 644.219 C 1159.9 620.376 1165.19 596.801 1173.81 573.752 C 1177.25 563.63 1179.67 553.218 1184.37 543.592 z"/><path transform="translate(0,0)" fill="rgb(255,255,255)" d="M 1481.87 952.811 C 1486.84 958.883 1487.58 963.132 1487.31 971.386 C 1486.59 994.271 1461.71 1001.78 1447.9 1014.88 C 1402.69 1057.77 1364.65 1114.99 1331.2 1166.98 C 1314.05 1194.13 1296.51 1221.04 1278.6 1247.7 C 1256.35 1280.32 1226.23 1323.64 1181.35 1321.87 C 1174.87 1318.31 1173.41 1316.76 1168.4 1311.69 C 1167.21 1310.1 1167.24 1310.04 1166.32 1308.27 C 1171.16 1308.49 1182.17 1321.48 1195.32 1318.38 C 1239.49 1307.87 1263.28 1262.17 1287.9 1227.44 C 1337.95 1156.84 1379.08 1076.74 1441.89 1016.26 C 1453.74 1004.84 1469.85 996.917 1479.91 983.529 C 1486.66 974.536 1483.47 962.813 1481.87 952.811 z"/><path transform="translate(0,0)" fill="rgb(255,255,255)" d="M 856.618 1375.16 C 861.208 1379.66 878.718 1408.28 882.793 1414.85 C 878.902 1418.02 864.924 1427.42 860.508 1429.43 C 850.06 1418.3 847.456 1408.13 832.387 1393.83 C 839.617 1386.12 847.916 1381.03 856.618 1375.16 z"/><path transform="translate(0,0)" fill="rgb(255,255,255)" d="M 456.508 990.763 C 456.567 991.05 456.665 991.331 456.685 991.623 C 457.008 996.431 432.233 1040.9 428.255 1049.13 C 400.257 1107.11 382.785 1172.85 345.867 1226.02 C 325.536 1255.29 296.093 1280.29 260.026 1286.55 C 240.722 1289.89 226.393 1285.46 210.491 1274.2 L 209.443 1273.18 C 211.104 1272.63 222.803 1278.4 225.342 1279.36 C 296.321 1306.05 356.364 1213.81 378.19 1160.07 C 403.435 1097.93 424.204 1047.5 456.508 990.763 z"/><path transform="translate(0,0)" fill="rgb(255,255,255)" d="M 1851.27 1157.66 C 1852.44 1158.14 1853.61 1158.62 1854.74 1159.2 C 1857.86 1160.79 1860.13 1163.71 1861.14 1167.04 C 1868.82 1192.29 1797.96 1260.06 1776.66 1275.36 C 1762.9 1285.25 1744.63 1290.86 1732.5 1302.51 C 1722.85 1311.77 1719.52 1326.98 1712.74 1338.33 C 1698.94 1361.41 1675.98 1388.52 1648.59 1395.07 C 1635.28 1398.25 1618.53 1397.15 1606.89 1389.57 C 1597.26 1383.29 1593.88 1374.56 1591.4 1363.91 C 1591.39 1361.97 1591.51 1361.51 1591.78 1359.58 C 1594.43 1365.54 1593.39 1369.66 1598.47 1377.2 C 1603.54 1384.72 1610.48 1390.45 1619.7 1392.14 C 1661.72 1399.81 1690.72 1368.19 1710.78 1335.69 C 1717.57 1324.67 1722.43 1309.45 1730.89 1300.55 C 1740.75 1290.04 1755.53 1285.94 1767.23 1278.01 C 1791.79 1261.37 1814.26 1240.97 1832.47 1217.57 C 1844.27 1202.39 1855.16 1191.32 1859.1 1172.13 C 1851.1 1166.3 1850.88 1167.77 1851.27 1157.66 z"/><path transform="translate(0,0)" fill="rgb(255,255,255)" d="M 1289.63 968.906 C 1320.41 992.356 1285.55 1043.41 1274.42 1069.24 C 1252.27 1120.84 1226.33 1170.75 1203.99 1222.23 C 1196.7 1239.03 1193.53 1260.56 1189.84 1278.33 L 1188.47 1276.86 C 1185.43 1231.98 1272.6 1073.15 1292.29 1023.59 C 1296.23 1011.88 1304.14 996.373 1298.17 984.13 C 1295.4 978.454 1292.05 975.003 1289.63 968.906 z"/><path transform="translate(0,0)" fill="rgb(255,255,255)" d="M 929.803 1108.76 C 929.846 1109.08 929.913 1109.39 929.932 1109.72 C 930.771 1124.13 884.492 1176.02 872.841 1187.61 C 865.538 1194.75 857.812 1201.45 849.705 1207.66 C 836.116 1217.89 817.718 1225.54 805.575 1236.52 C 800.112 1241.45 794.231 1258.53 790.217 1265.98 C 774.571 1295.06 749.941 1325.68 714.961 1330.1 C 699.066 1332.06 690.296 1326.45 678.548 1317.25 L 678.281 1316.21 C 682.547 1316.96 689.334 1322.81 694.737 1325.28 C 704.807 1329.87 716.183 1327.66 726.361 1324.03 C 759.799 1312.11 777.469 1282.21 794.28 1253.13 C 797.308 1247.9 801.177 1235.47 805.513 1232.32 C 816.608 1224.24 830.595 1216.73 842.384 1208.96 C 872.532 1189.11 914.387 1141.54 929.803 1108.76 z"/><path transform="translate(0,0)" fill="rgb(234,234,234)" d="M 1048.96 1281.27 C 1047.55 1241.16 1099.84 1152.94 1118.4 1114.89 C 1136.97 1076.8 1160.65 1033.78 1176.91 994.433 C 1184.39 976.353 1174.37 964.174 1161.96 951.57 L 1163.81 950.526 L 1166.74 951.866 C 1171.61 957.903 1175.4 959.613 1179.26 968.851 C 1182.09 974.756 1182.6 986.272 1179.99 992.396 C 1165.05 1027.43 1147.03 1065.42 1129.5 1099.01 C 1104.32 1147.23 1077.7 1192.85 1060.62 1244.8 C 1056.57 1257.12 1053.87 1269.3 1048.96 1281.27 z"/><path transform="translate(0,0)" fill="rgb(234,234,234)" d="M 702.388 890.508 C 703.562 888.456 702.709 889.248 705.075 888.274 C 706.014 892.327 707.768 896.341 709.273 900.316 C 713.754 912.151 708.328 922.961 702.488 933.111 C 693.505 948.03 683.615 963.011 675.457 978.69 C 646.598 1034.15 619.954 1089.92 602.287 1150.14 C 598.083 1164.47 591.468 1190.05 587.896 1205.77 C 587.482 1206.01 587.069 1206.25 586.656 1206.49 C 579.694 1194.44 617.429 1100 623.901 1080.99 C 630.613 1064.03 640.11 1047.62 647.158 1030.91 C 657.981 1005.24 671.481 981.507 684.522 956.981 C 697.324 932.904 717.792 919.498 702.388 890.508 z"/><path transform="translate(0,0)" fill="rgb(255,255,255)" d="M 595.506 994.776 C 596.192 999.357 588.28 1013.01 585.547 1017.02 C 553.001 1064.82 530.583 1117.7 501.564 1167.51 C 493.721 1180.8 487.856 1197.02 477.983 1208.96 C 465.975 1223.48 451.405 1239.09 433.521 1223.27 L 433.199 1221.89 L 434.279 1221.43 C 454.152 1231.67 465.904 1223.17 477.494 1204.97 C 510.351 1153.36 534.545 1096.27 565.151 1043.24 C 575.056 1026.08 584.701 1011.31 595.506 994.776 z"/><path transform="translate(0,0)" fill="rgb(255,255,255)" d="M 1006.77 1043.55 L 1007.27 1043.58 C 1005.78 1046.53 996.544 1053.39 993.349 1055.98 C 971.799 1056.12 950.23 1054.97 929.23 1055.24 C 927.762 1052.91 926.685 1049.95 928.277 1047.54 C 947.558 1047.35 966.285 1047.37 985.415 1044.76 C 992.33 1043.82 999.797 1043.57 1006.77 1043.55 z"/><path transform="translate(0,0)" fill="rgb(255,255,255)" d="M 1160.8 409.036 C 1170.29 408.159 1174.54 413.831 1171.29 422.578 C 1168.43 430.259 1165.56 431.56 1158.32 434.88 C 1153.99 434.629 1148.69 433.933 1144.29 433.481 L 1142.67 437.641 L 1140.09 438.388 L 1138.28 437.211 C 1136.97 432.778 1139.25 425.269 1140.26 420.307 C 1147.46 416.793 1152.66 412.758 1160.8 409.036 z"/><path transform="translate(0,0)" fill="rgb(255,255,255)" d="M 423.594 977.999 C 424.042 983.405 404.062 996.552 398.884 1000.8 C 371.132 1023.54 336.837 1050.79 324.247 1085.31 C 319.544 1097.32 320.518 1110.02 315.697 1122.03 C 307.752 1141.82 285.19 1146.5 267.307 1138.12 L 266.395 1136.95 C 269.651 1135.39 286.314 1140.32 294.016 1138.33 C 313.565 1133.91 313.209 1119.42 315.764 1103.29 C 320.777 1071.65 344.812 1045.4 367.688 1024.7 C 386.206 1007.95 403.453 992.849 423.594 977.999 z"/><path transform="translate(0,0)" fill="rgb(255,255,255)" d="M 850.209 658.544 C 858.135 659.802 906.108 682.243 914.289 688.826 C 918.73 692.399 922.14 695.831 926.048 700.206 C 922.3 700.31 908.669 693.629 904.789 691.795 C 884.761 682.331 863.944 677.256 850.209 658.544 z"/><path transform="translate(0,0)" fill="rgb(255,255,255)" d="M 929.145 1072.85 C 936.9 1073.53 968.431 1073.67 972.106 1077.8 C 969.297 1082.54 955.035 1084.53 949.522 1085.69 C 950.982 1089.28 956.824 1087.5 962.803 1092.15 L 962.264 1093.57 C 953.545 1096.21 941.511 1092.68 935.274 1086.05 C 929.484 1079.9 929.166 1080.9 929.145 1072.85 z"/><path transform="translate(0,0)" fill="rgb(255,255,255)" d="M 1616.94 1127.94 L 1618.26 1128.51 C 1600.91 1166.74 1579.25 1203.21 1568.02 1243.98 C 1566.29 1250.27 1563.11 1256.19 1559.39 1261.5 C 1565.68 1231.03 1580.68 1200.6 1592.31 1171.66 C 1598.18 1157.04 1608.5 1141.37 1616.94 1127.94 z"/><path transform="translate(0,0)" fill="rgb(255,255,255)" d="M 1806.27 1073.66 C 1818.24 1076.74 1827.67 1091.76 1828.22 1103.59 C 1828.33 1106.01 1828.28 1111.22 1827.27 1113.49 C 1817 1136.58 1805.09 1158.94 1794.31 1181.8 C 1789.42 1192.16 1785.72 1202.31 1778.08 1210.97 C 1775.21 1207.37 1821.88 1122.09 1824.66 1111.63 C 1828.96 1095.51 1815.97 1084.22 1806.27 1073.66 z"/><path transform="translate(0,0)" fill="rgb(255,255,255)" d="M 1144.52 1234.76 C 1145.01 1241.81 1140.42 1247.57 1136.64 1253.14 C 1116.54 1282.68 1068.78 1345.14 1028.92 1309.73 C 1028.19 1308.96 1028.43 1309.46 1028.45 1308.14 C 1033.22 1309.34 1035.57 1312.22 1039.5 1314.06 C 1080.42 1333.27 1128.79 1263.48 1144.52 1234.76 z"/><path transform="translate(0,0)" fill="rgb(255,255,255)" d="M 793.161 1025.63 C 796.194 1032.78 795.851 1040.11 792.313 1047.08 C 780.719 1069.91 764.248 1090.79 750.231 1112.36 C 738.088 1131.05 728.835 1148.97 718.611 1168.64 L 717.191 1167.44 C 716.634 1165.06 717.417 1162.02 718.656 1159.95 C 737.51 1128.62 757.252 1097.13 777.486 1066.67 C 788.786 1049.65 790.758 1046.19 793.161 1025.63 z"/><path transform="translate(0,0)" fill="rgb(255,255,255)" d="M 664.517 1180.81 C 665.745 1191.3 631.097 1227.23 621.714 1233.65 C 602.102 1247.06 580.366 1256.44 564.192 1233.47 L 564.53 1232.06 C 574.4 1235.44 577.832 1248.51 594.797 1244.25 C 621.247 1237.61 650.526 1201.96 664.517 1180.81 z"/><path transform="translate(0,0)" fill="rgb(234,234,234)" d="M 1717.29 1089.88 C 1735.6 1116.6 1677.99 1162.24 1673.02 1188.58 C 1672.61 1190.73 1666.14 1200.01 1664.36 1202.45 L 1661.41 1201.41 C 1661.35 1196.52 1666.2 1195.9 1666.86 1189.26 C 1671.16 1179.6 1674.09 1172.82 1680.69 1164.7 C 1695.45 1146.54 1717.07 1125.46 1718.74 1101.09 C 1718.9 1098.6 1717.7 1092.33 1717.29 1089.88 z"/><path transform="translate(0,0)" fill="rgb(255,255,255)" d="M 705.076 317.829 C 711.301 321.005 721.287 330.457 727.146 335.193 C 737.306 343.405 758.902 355.953 765.43 366.044 C 740.922 360.107 726.589 339.448 707.79 324.167 C 704.788 321.727 705.093 320.684 705.076 317.829 z"/><path transform="translate(0,0)" fill="rgb(255,255,255)" d="M 897.203 1042.82 C 898.82 1051.5 868.944 1105.94 863.93 1117.5 C 858.811 1129.31 850.13 1151.45 842.012 1160.15 L 841.674 1159.16 C 842.169 1155.92 850.861 1139.69 852.797 1135.46 C 867.221 1103.97 881.435 1073.67 897.203 1042.82 z"/><path transform="translate(0,0)" fill="rgb(255,255,255)" d="M 1213.53 396.703 C 1217.99 401.121 1213.29 463.783 1208.61 469.672 L 1206.37 466.773 C 1205.19 461.6 1212 403.217 1213.53 396.703 z"/><path transform="translate(0,0)" fill="rgb(255,255,255)" d="M 1068.09 1001.95 L 1069.32 1002.33 L 1068.83 1003.46 C 1059.82 1008.41 1033.22 1026.31 1023.6 1032.84 L 1025.67 1029.47 C 1028.5 1024.82 1029.03 1023.31 1033.24 1019.89 C 1035.74 1019.31 1036.41 1019.11 1038.79 1018.16 L 1039.32 1016.59 C 1035.51 1013.41 1023.52 1012.96 1018.32 1012.51 C 1035.47 1009.84 1052.16 1008.57 1068.09 1001.95 z"/><path transform="translate(0,0)" fill="rgb(255,255,255)" d="M 1064.98 1062 L 1065.58 1062.72 C 1065.11 1069.54 1050.22 1082.19 1045.84 1088.24 C 1041.01 1094.52 1036.6 1101.48 1033.64 1108.87 C 1029.3 1119.71 1035.76 1131.27 1033.69 1142.07 C 1013.5 1119.59 1048.92 1077.23 1064.98 1062 z"/><path transform="translate(0,0)" fill="rgb(255,255,255)" d="M 712.319 438.437 C 721.011 443.166 729.403 457.063 723.663 466.316 C 719.892 467.845 719.278 468.654 716.365 467.494 C 711.641 460.752 712.555 447.131 712.319 438.437 z"/><path transform="translate(0,0)" fill="rgb(255,255,255)" d="M 973.586 1012.15 C 985.325 1011.52 997.094 1011.67 1008.81 1012.63 C 1005.91 1014.44 997.74 1013.81 994.225 1013.62 C 986.118 1015.34 943.272 1018.68 937.931 1014.08 C 948.615 1011.38 962.377 1012.05 973.586 1012.15 z"/><path transform="translate(0,0)" fill="rgb(102,103,104)" d="M 973.586 1012.15 C 985.325 1011.52 997.094 1011.67 1008.81 1012.63 C 1005.91 1014.44 997.74 1013.81 994.225 1013.62 C 989.575 1012.85 978.591 1012.43 973.586 1012.15 z"/><path transform="translate(0,0)" fill="rgb(255,255,255)" d="M 1666.86 1189.26 C 1666.2 1195.9 1661.35 1196.52 1661.41 1201.41 L 1664.36 1202.45 C 1660.26 1207.78 1645.95 1230.19 1642.59 1232.07 L 1641.71 1230.69 C 1642.95 1218.42 1659 1200.56 1666.86 1189.26 z"/><path transform="translate(0,0)" fill="rgb(255,255,255)" d="M 1178.26 317.046 C 1176.75 306.695 1173.09 285.715 1176.55 276.249 L 1177.7 276.397 C 1184.08 291.34 1182.49 301.857 1180.15 317.152 L 1178.26 317.046 z"/><path transform="translate(0,0)" fill="rgb(255,255,255)" d="M 707.414 397.931 C 724.594 397.603 718.981 406.376 715.439 419.647 C 713.442 421.284 712.346 420.269 710.659 419.281 C 707.22 413.505 707.554 404.664 707.414 397.931 z"/><path transform="translate(0,0)" fill="rgb(234,234,234)" d="M 1058.51 908.75 C 1056.11 904.405 1057.82 887.005 1059.02 881.546 L 1060.3 882.324 C 1060.54 885.006 1060.1 887.767 1059.81 890.466 C 1062.37 909.845 1063.52 940.544 1061.94 959.993 L 1059.97 955.687 C 1060.29 937.665 1060.5 926.655 1058.51 908.75 z"/><path transform="translate(0,0)" fill="rgb(34,35,36)" d="M 1058.51 908.75 C 1056.11 904.405 1057.82 887.005 1059.02 881.546 L 1060.3 882.324 C 1060.54 885.006 1060.1 887.767 1059.81 890.466 C 1058.56 897.984 1058.54 901.091 1058.51 908.75 z"/><path transform="translate(0,0)" fill="rgb(255,255,255)" d="M 729.906 492.808 L 731.266 493.799 C 735.251 504.438 735.27 508.699 724.447 513.6 C 724.237 513.285 724.026 512.97 723.815 512.655 C 719.172 500.177 719.228 497.825 729.906 492.808 z"/><path transform="translate(0,0)" fill="rgb(255,255,255)" d="M 1160.38 277.808 L 1161.38 278.841 C 1163.77 288.479 1162.25 323.295 1161.61 334.602 C 1155.61 321.542 1159.23 292.376 1160.38 277.808 z"/><path transform="translate(0,0)" fill="rgb(255,255,255)" d="M 706.566 339.801 C 716.934 346.02 731.531 356.552 739.034 366.025 C 725.441 362.687 713.523 351.618 706.566 339.801 z"/><path transform="translate(0,0)" fill="rgb(255,255,255)" d="M 1041.83 392.947 C 1054.62 393.457 1063.67 396.844 1068.55 409.379 C 1059.45 407.278 1047.93 400.083 1041.83 392.947 z"/><path transform="translate(0,0)" fill="rgb(255,255,255)" d="M 886.186 660.892 C 896.849 662.422 916.669 672.24 923.907 681.038 C 909.669 677.382 898.432 668.87 886.186 660.892 z"/><path transform="translate(0,0)" fill="rgb(255,255,255)" d="M 946.498 441.448 C 956.71 444.443 961.113 449.898 962.879 460.09 C 952.789 460.011 949.667 449.229 946.498 441.448 z"/><path transform="translate(0,0)" fill="rgb(234,234,234)" d="M 923.684 994.682 C 941.836 996.164 959.683 994.725 977.93 995.258 C 957.831 1000.42 939.242 997.578 918.707 996.503 L 923.684 994.682 z"/><path transform="translate(0,0)" fill="rgb(255,255,255)" d="M 983.942 1173.81 C 989.806 1173.6 997.25 1180.63 1004.96 1180.26 C 1009.36 1180.05 1014.88 1178.45 1019.32 1177.53 L 1020.22 1179.06 C 1009.88 1189.89 993.269 1182.09 983.942 1173.81 z"/><path transform="translate(0,0)" fill="rgb(255,255,255)" d="M 1142.17 301.954 C 1141.96 293.479 1135.26 276.991 1140.02 270.586 L 1141.73 271.64 C 1145.05 278.102 1144.24 292.3 1144.17 300.037 L 1142.17 301.954 z"/><path transform="translate(0,0)" fill="rgb(255,255,255)" d="M 1198.82 492.233 C 1203.36 494.244 1202.71 493.182 1205.19 496.704 C 1205.88 501.256 1203.66 506.184 1202.16 510.773 C 1199.57 509.749 1197.85 509.409 1196.21 507.191 C 1195.42 503.081 1197.93 496.772 1198.82 492.233 z"/><path transform="translate(0,0)" fill="rgb(255,255,255)" d="M 971.932 415.664 C 981.069 418.37 983.053 425.902 983.297 434.381 C 973.527 429.957 972.513 425.639 971.932 415.664 z"/><path transform="translate(0,0)" fill="rgb(255,255,255)" d="M 931.63 608.368 C 942.449 610.49 943.591 615.509 944.337 625.458 C 934.257 620.821 933.62 618.809 931.63 608.368 z"/><path transform="translate(0,0)" fill="rgb(255,255,255)" d="M 948.09 396.511 C 956.026 400.97 956.281 407.583 956.161 415.798 C 945.746 411.199 947.34 406.176 948.09 396.511 z"/><path transform="translate(0,0)" fill="rgb(255,255,255)" d="M 704.046 357.397 C 708.868 359.893 715.343 365.366 719.804 368.883 C 715.295 369.004 708.791 370.09 705.28 368.011 C 703.118 363.844 703.934 362.493 704.046 357.397 z"/><path transform="translate(0,0)" fill="rgb(255,255,255)" d="M 925.61 566.899 C 933.967 570.197 936.979 572.59 939.797 581.271 C 930.928 580.243 927.276 575.208 925.61 566.899 z"/><path transform="translate(0,0)" fill="rgb(255,255,255)" d="M 920.423 546.433 C 930.267 548.005 932.182 551.617 936.381 560.34 C 927.418 558.081 924.239 554.663 920.423 546.433 z"/><path transform="translate(0,0)" fill="rgb(255,255,255)" d="M 957.986 507.485 C 966.489 508.01 972.041 512.046 973.839 520.34 C 965.502 518.135 962.011 514.98 957.986 507.485 z"/><path transform="translate(0,0)" fill="rgb(255,255,255)" d="M 877.995 480.428 C 884.45 482.558 891.07 487.533 892.039 494.629 C 885.018 493.137 878.923 487.741 877.995 480.428 z"/><path transform="translate(0,0)" fill="rgb(234,234,234)" d="M 682.592 1198.02 C 688.692 1199.98 696.965 1206.42 704.73 1208.93 L 711.372 1211.08 C 701.465 1213.32 688.025 1206.38 682.592 1198.02 z"/><path transform="translate(0,0)" fill="rgb(255,255,255)" d="M 957.313 1155.64 C 959.568 1158 963.561 1163.27 964.677 1166.34 L 963.151 1167.11 C 959.847 1167.25 957.133 1167.77 954.221 1166.38 C 953.356 1162.93 955.652 1159.64 957.313 1155.64 z"/><path transform="translate(0,0)" fill="rgb(255,255,255)" d="M 955.028 488.657 C 964.198 490.151 967.109 495.983 971.434 503.302 C 965.366 501.091 956.836 495.106 955.028 488.657 z"/><path transform="translate(0,0)" fill="rgb(255,255,255)" d="M 955.518 620.548 C 958.21 621.563 958.82 621.933 961.323 623.399 C 963.482 626.645 962.765 630.512 962.602 634.558 C 960.549 633.64 959.041 632.735 957.09 631.622 C 954.799 628.345 955.433 624.662 955.518 620.548 z"/><path transform="translate(0,0)" fill="rgb(163,162,165)" d="M 1144.17 300.037 C 1142.98 309.227 1140.84 333.498 1143.48 342.279 L 1142.29 342.81 C 1142.72 337.606 1140.9 331.91 1140.52 326.189 C 1139.93 317.238 1140.93 310.71 1142.17 301.954 L 1144.17 300.037 z"/><path transform="translate(0,0)" fill="rgb(255,255,255)" d="M 889.565 526.568 C 897.54 528.696 900.999 534.616 904.654 541.511 C 896.569 539.78 893.064 533.362 889.565 526.568 z"/><path transform="translate(0,0)" fill="rgb(255,255,255)" d="M 963.082 530.505 C 971.211 533.111 973.499 535.52 975.132 543.594 C 966.919 542.462 965.748 537.164 963.082 530.505 z"/><path transform="translate(0,0)" fill="rgb(255,255,255)" d="M 899.492 551.511 C 905.481 553.727 908.632 560.867 910.73 566.354 C 900.983 563.88 901.483 560.266 899.492 551.511 z"/><path transform="translate(0,0)" fill="rgb(255,255,255)" d="M 913.48 522.597 C 920.642 523.916 925.944 529.029 929.393 535.179 C 922.055 534.129 917.231 528.415 913.48 522.597 z"/><path transform="translate(0,0)" fill="rgb(255,255,255)" d="M 910.661 595.748 C 916.214 599.8 916.806 604.952 918.259 611.472 C 909.549 606.904 910.323 604.831 910.661 595.748 z"/><path transform="translate(0,0)" fill="rgb(255,255,255)" d="M 910.547 500.054 C 918.104 502.007 919.746 506.977 922.501 513.531 C 916.587 511.559 911.959 506.069 910.547 500.054 z"/><path transform="translate(0,0)" fill="rgb(255,255,255)" d="M 1006.04 1032.06 C 1010.13 1032.02 1018.94 1030.95 1021.26 1034.36 L 1018.54 1036.95 C 1013.72 1035.72 1007 1035.99 1003.79 1034.3 L 1006.04 1032.06 z"/><path transform="translate(0,0)" fill="rgb(255,255,255)" d="M 874.948 432.881 C 879.743 436.117 882.805 441.131 883.233 446.881 C 875.048 443.58 875.041 441.128 874.948 432.881 z"/><path transform="translate(0,0)" fill="rgb(255,255,255)" d="M 937.539 649.024 C 944.603 651.292 944.941 654.429 945.446 660.998 C 939.143 657.812 936.939 656.499 937.539 649.024 z"/><path transform="translate(0,0)" fill="rgb(255,255,255)" d="M 1123.07 300.876 C 1122.76 295.422 1122.2 282.272 1124 277.227 C 1125.61 285.707 1125.34 291.558 1125.14 300.074 L 1123.07 300.876 z"/><path transform="translate(0,0)" fill="rgb(255,255,255)" d="M 953.428 468.962 C 959.725 470.846 963.979 474.322 967.267 479.906 C 960.815 479.049 955.286 475.222 953.428 468.962 z"/><path transform="translate(0,0)" fill="rgb(102,103,104)" d="M 1056.43 841.287 C 1057.52 846.048 1058.01 862.319 1057.46 867.152 C 1055.86 861.246 1054.99 848.445 1054.35 841.864 L 1056.43 841.287 z"/><path transform="translate(0,0)" fill="rgb(255,255,255)" d="M 967.216 551.507 C 973.06 553.628 975.727 557.343 978.175 562.835 C 970.456 561.638 969.153 558.25 967.216 551.507 z"/><path transform="translate(0,0)" fill="rgb(255,255,255)" d="M 974.653 443.084 C 981.588 445.794 984.562 449.387 988.703 455.341 C 982.105 453.939 977.124 449.221 974.653 443.084 z"/><path transform="translate(0,0)" fill="rgb(255,255,255)" d="M 901.84 406.451 C 902.587 406.916 903.908 408.077 904.64 408.679 C 906.53 413.023 906.014 416.794 905.97 421.611 C 904.73 420.966 904.118 420.329 903.015 419.433 C 901.03 415.006 901.67 411.385 901.84 406.451 z"/><path transform="translate(0,0)" fill="rgb(255,255,255)" d="M 952.215 581.34 C 958.716 583.575 959.362 586.728 960.959 592.794 C 954.07 591.899 953.273 586.964 952.215 581.34 z"/><path transform="translate(0,0)" fill="rgb(255,255,255)" d="M 882.71 504.023 C 888.92 505.798 894.276 510.427 898.299 515.33 C 892.155 514.336 885.528 509.613 882.71 504.023 z"/><path transform="translate(0,0)" fill="rgb(255,255,255)" d="M 905.466 474.583 C 913.14 476.304 913.542 479.403 914.468 486.399 C 908.676 483.146 907.784 480.887 905.466 474.583 z"/><path transform="translate(0,0)" fill="rgb(234,234,234)" d="M 1121.99 227.585 C 1122.81 230.35 1123.17 232.434 1124.64 234.854 C 1124.74 238.133 1124.42 243.012 1124.3 246.419 L 1123.02 246.853 L 1123.72 249.256 L 1123.2 248.907 C 1121.41 241.893 1121.9 234.85 1121.99 227.585 z"/><path transform="translate(0,0)" fill="rgb(255,255,255)" d="M 932.408 491.478 C 938.451 492.743 940.486 497.547 943.361 502.477 C 936.903 501.492 934.509 496.982 932.408 491.478 z"/><path transform="translate(0,0)" fill="rgb(163,162,165)" d="M 1156.5 230.762 L 1158.37 229.975 C 1158.78 236.233 1159.66 244.518 1158.44 250.481 C 1156.47 246.617 1156.69 235.732 1156.5 230.762 z"/><path transform="translate(0,0)" fill="rgb(255,255,255)" d="M 949.788 561.362 C 954.213 562.668 955.728 568.737 957.301 572.718 C 954.128 571.891 954.256 571.8 951.508 569.91 C 949.545 566.815 949.875 565.037 949.788 561.362 z"/><path transform="translate(0,0)" fill="rgb(102,103,104)" d="M 1178.26 317.046 L 1180.15 317.152 C 1180.07 323.154 1180.25 332.411 1179.81 338.143 L 1178.11 339.028 C 1177.8 332.428 1178.48 324.278 1178.26 317.046 z"/><path transform="translate(0,0)" fill="rgb(255,255,255)" d="M 940.422 517.537 C 945.944 519.841 947.32 522.886 948.455 528.475 C 942.328 526.838 941.679 523.096 940.422 517.537 z"/><path transform="translate(0,0)" fill="rgb(255,255,255)" d="M 876.706 457.017 C 882.106 458.782 884.78 461.745 887.071 466.731 C 881.3 465.47 878.58 462.363 876.706 457.017 z"/><path transform="translate(0,0)" fill="rgb(255,255,255)" d="M 953.496 603.95 C 959.715 605.654 960.748 606.332 963.159 612.348 C 956.786 610.905 955.468 610.162 953.496 603.95 z"/><path transform="translate(0,0)" fill="rgb(255,255,255)" d="M 945.697 538.527 C 951.602 540.894 951.996 543.217 951.955 548.883 L 949.141 547.774 C 946.425 544.836 946.492 542.655 945.697 538.527 z"/><path transform="translate(0,0)" fill="rgb(255,255,255)" d="M 930.803 591.989 C 936.27 593.608 938.957 595.445 941.126 600.709 C 935.276 599.599 932.966 597.249 930.803 591.989 z"/><path transform="translate(0,0)" fill="rgb(255,255,255)" d="M 928.591 471.519 C 934.639 473.017 935.496 476.176 937.773 481.454 C 931.496 479.422 931.082 477.425 928.591 471.519 z"/><path transform="translate(0,0)" fill="rgb(234,234,234)" d="M 947.849 424.788 C 953.198 427.324 955.14 428.32 957.427 433.696 C 951.938 431.121 949.378 430.8 947.849 424.788 z"/><path transform="translate(0,0)" fill="rgb(255,255,255)" d="M 926.085 426.574 L 927.752 428.146 C 929.504 432.426 929.171 433.351 928.967 438.148 L 926.988 436.459 C 925.231 433.147 925.863 430.405 926.085 426.574 z"/><path transform="translate(0,0)" fill="rgb(234,234,234)" d="M 1081.11 937.892 C 1080.83 944.346 1080.59 949.543 1079.75 955.964 L 1078.15 941.166 L 1081.11 937.892 z"/><path transform="translate(0,0)" fill="rgb(102,103,104)" d="M 1616.94 1127.94 C 1619.15 1123.44 1620.85 1119.64 1623.71 1115.49 L 1625.17 1116.05 L 1618.26 1128.51 L 1616.94 1127.94 z"/><path transform="translate(0,0)" fill="rgb(102,103,104)" d="M 1059.97 955.687 L 1061.94 959.993 C 1062.19 963.33 1062.14 965.671 1061.14 968.823 C 1059.44 964.122 1059.9 960.699 1059.97 955.687 z"/><path transform="translate(0,0)" fill="rgb(234,234,234)" d="M 982.355 961.335 C 988.07 960.592 988.815 960.79 993.172 963.729 C 987.989 964.185 986.527 964.007 982.355 961.335 z"/><path transform="translate(0,0)" fill="rgb(74,74,76)" d="M 955.787 1035.51 C 958.702 1035.09 959.649 1035.09 962.509 1035.07 L 963.506 1036.47 C 960.238 1037.71 958.67 1036.85 955.787 1035.51 z"/><path transform="translate(0,0)" fill="rgb(102,103,104)" d="M 1123.07 300.876 L 1125.14 300.074 C 1125.14 303.007 1124.89 305.028 1124.58 307.904 L 1123.79 308.218 C 1122.99 305.812 1123.13 303.437 1123.07 300.876 z"/></svg>